<svg xmlns="http://www.w3.org/2000/svg" width="83.52" height="23.702" xmlns:v="https://vecta.io/nano"><path d="M11.923 23.7h-.178a11.66 11.66 0 0 1-4.474-.9 11.54 11.54 0 0 1-3.776-2.537.2.2 0 0 1-.079-.129c.007-.055.035-.106.079-.14l3.465-3.705.008-.009.013-.014 4.832-5.166c.024-.028.058-.045.094-.05.027 0 .043.018.043.05.059.073 8.071 8.8 8.319 8.96.037.037.052.071.042.1s-.049.04-.11.04a9.3 9.3 0 0 1-1.5 1.28 11.48 11.48 0 0 1-5.863 2.155 5.99 5.99 0 0 1-.915.065zm38.618-2.833h-1.773c-.136 0-.136-.066-.136-.135V7.328c0-.134.066-.134.136-.134h1.909c.136 0 .136.065.136.134v1.55c.434-.714 1.077-1.279 1.841-1.617a4.73 4.73 0 0 1 3.886.121c1.214.588 2.112 1.675 2.46 2.978a5.92 5.92 0 0 1-.409 4.446 4.26 4.26 0 0 1-3.41 2.358 4.42 4.42 0 0 1-2.454-.269 4.3 4.3 0 0 1-1.773-1.28.35.35 0 0 1-.068-.1.35.35 0 0 0-.068-.1V20.6c-.005.269-.005.269-.277.269zm3.313-12.22h0c-.723-.002-1.42.272-1.949.766a3.05 3.05 0 0 0-1.091 2.493c.066.22.111.445.136.673a3.08 3.08 0 0 0 3 2.695h.038a3.03 3.03 0 0 0 2.826-1.887c.282-.684.33-1.441.136-2.155a3.05 3.05 0 0 0-1.977-2.358c-.354-.151-.734-.228-1.119-.228zM42.36 17.4c-1.351-.002-2.665-.438-3.75-1.243a.19.19 0 0 1-.1-.111.3.3 0 0 1 .035-.225 4.66 4.66 0 0 0 .372-.717 6.76 6.76 0 0 1 .31-.631 5.57 5.57 0 0 1 .776.316 8 8 0 0 0 .86.358 4.1 4.1 0 0 0 2.182.269 2.01 2.01 0 0 0 .682-.2c.283-.132.485-.393.542-.7s-.047-.624-.27-.844a1.62 1.62 0 0 0-.75-.4 9.72 9.72 0 0 0-1.1-.386 12.16 12.16 0 0 1-.675-.221l-1.022-.4a2.68 2.68 0 0 1 .136-4.85c.686-.273 1.418-.413 2.157-.412.1 0 .2 0 .3.008 1.022.069 2.019.344 2.932.809.168.066.253.1.272.157s-.032.144-.135.315L45.5 9.484a.45.45 0 0 0-.037.043c-.024.03-.041.052-.077.052s-.062-.012-.09-.028c-.813-.469-1.723-.746-2.659-.809a1.8 1.8 0 0 0-1.023.135.88.88 0 0 0-.614.741.77.77 0 0 0 .409.876 5.38 5.38 0 0 0 1.432.606c.586.142 1.156.345 1.7.606.347.153.668.357.954.606a2.57 2.57 0 0 1 .886 2.358 2.69 2.69 0 0 1-1.908 2.359 6.27 6.27 0 0 1-2.113.371zm-11.12-.184a3.98 3.98 0 0 1-1.562-.317c-.817-.309-1.463-.951-1.778-1.766a3.02 3.02 0 0 1 .139-2.483 2.91 2.91 0 0 1 1.909-1.415 6.29 6.29 0 0 1 1.569-.2h2.933c.081 0 .144-.025.159-.063.008-.026-.001-.055-.023-.072a2.45 2.45 0 0 0-.068-.741c-.185-.697-.782-1.207-1.5-1.28-.966-.194-1.968-.076-2.863.336-.318.139-.616.32-.886.539-.021.025-.052.041-.085.044-.043 0-.082-.036-.12-.111-.275-.412-.526-.84-.751-1.281-.036-.036-.052-.07-.042-.094s.048-.04.11-.04c1.278-.814 2.761-1.246 4.276-1.244.233 0 .47.01.7.031.522.028 1.033.165 1.5.4 1.046.489 1.767 1.481 1.909 2.627.058.65.081 1.302.068 1.954v4.985c0 .134-.066.134-.136.134h-1.839c-.136 0-.136-.065-.136-.134v-1.073c-.821.666-1.813 1.086-2.863 1.212-.205.032-.413.048-.621.048zm.484-4.561c-.441.005-.878.072-1.3.2-.373.122-.657.428-.75.809a1.5 1.5 0 0 0 1.09 1.751 3.13 3.13 0 0 0 2.455-.269c.8-.304 1.301-1.102 1.227-1.954a1.17 1.17 0 0 0 .068-.4c0-.134-.069-.134-.136-.134zm47.013 4.54c-.709 0-1.413-.122-2.08-.363a4.47 4.47 0 0 1-3-3.639c-.233-1.066-.113-2.179.343-3.17.645-1.524 2.042-2.598 3.681-2.829a6.66 6.66 0 0 1 2.591.067 3.79 3.79 0 0 1 2.928 2.762c.294.937.387 1.925.273 2.9 0 .135-.066.135-.136.135h-3.682a22.47 22.47 0 0 0-3.066-.211l-.615.008c-.057-.008-.114.014-.151.058-.021.047-.015.102.014.144a3.12 3.12 0 0 0 3.045 2.358h.022.127a3.8 3.8 0 0 0 2.668-1.08.13.13 0 0 1 .1-.05c.039.001.076.019.1.05.17.168.326.339.476.5s.308.338.479.507c.031.024.05.061.05.1a.13.13 0 0 1-.05.1 6.01 6.01 0 0 1-2.728 1.482c-.456.108-.922.164-1.39.166zm-.081-8.5c-.604-.001-1.192.189-1.68.544a2.81 2.81 0 0 0-1.137 1.93c-.027.052-.033.085-.022.1s.076.03.158.03h5.454c.136 0 .136-.068.136-.134a3.19 3.19 0 0 0-.477-1.415 2.56 2.56 0 0 0-1.909-1.011 2.88 2.88 0 0 0-.525-.044zM63.585 17.1h-1.862c-.136 0-.136 0-.136-.135v-9.7c0-.135.066-.135.136-.135h1.841c.136 0 .136.069.136.135l.068 9.634c.007.055-.012.111-.052.15-.035.034-.082.052-.131.051zm5.593-.135h-1.864c-.136 0-.136-.065-.136-.134v-9.7c0-.134.066-.134.136-.134h1.909c.136 0 .136.065.136.134v1.611c.085-.117.176-.229.273-.336.648-.824 1.613-1.337 2.659-1.414a.6.6 0 0 0 .146-.028.7.7 0 0 1 .177-.032c.057-.002.113.02.154.06.077.079.106.193.077.3-.005.033-.008.067-.009.1V8.81c0 .135-.066.135-.136.135s-.169-.01-.254-.01a3.32 3.32 0 0 0-1.724.481 2.77 2.77 0 0 0-1.363 2.426c-.046 1.125-.03 2.234-.015 3.305l.015 1.612c.006.055-.013.111-.053.15-.034.034-.08.053-.128.054zM23.2 15.075h0a.15.15 0 0 1-.136-.134C23.012 14.872 12.632 3.6 12.018 3.084c-.087-.086-.148-.122-.205-.122-.08 0-.152.071-.272.189C11.449 3.242.7 14.806.563 15.008c-.02.024-.049.04-.08.044-.018 0-.034-.01-.041-.026-.012-.027-.018-.056-.016-.085-.342-1.204-.48-2.457-.409-3.706.057-1.807.574-3.569 1.5-5.121C3.108 3.115 5.962.989 9.291.322A11.56 11.56 0 0 1 20.4 3.623c1.726 1.707 2.849 3.93 3.2 6.332a9.06 9.06 0 0 1 .136 1.953 15.57 15.57 0 0 1-.477 3.032c.009.07.009.135-.059.135zm39.437-9.633c-.332.001-.652-.129-.888-.363-.245-.241-.378-.574-.367-.917.003-.725.576-1.319 1.3-1.347h.018a1.28 1.28 0 0 1 .922.391c.246.255.372.603.348.956a1.28 1.28 0 0 1-.379.905c-.245.239-.574.374-.916.375z" fill="#fff"/></svg>