<svg xmlns="http://www.w3.org/2000/svg" width="16" height="16" xmlns:v="https://vecta.io/nano"><path d="M0 0h16v16H0z" fill="rgba(255,255,255,0)"/><path d="M8 .5a7.5 7.5 0 1 0 0 15A7.5 7.5 0 0 0 15.5 8 7.51 7.51 0 0 0 8 .5zm3.281 8.125H8.625v2.656c0 .345-.28.625-.625.625s-.625-.28-.625-.625V8.625H4.719c-.345 0-.625-.28-.625-.625s.28-.625.625-.625h2.656V4.719c0-.345.28-.625.625-.625s.625.28.625.625v2.656h2.656c.345 0 .625.28.625.625s-.28.625-.625.625zm0 0" fill="#fff" stroke="#325baf" stroke-linecap="round" stroke-linejoin="round" stroke-width=".5"/></svg>