<svg xmlns="http://www.w3.org/2000/svg" width="24" height="24" xmlns:v="https://vecta.io/nano"><path d="M0 0h24v24H0z" fill="rgba(255,255,255,0)"/><path d="M5.185 17.31V6.685c.009-2.159 1.764-3.904 3.923-3.9h-2.4c-2.159-.004-3.914 1.741-3.923 3.9v10.62c.009 2.161 1.766 3.906 3.927 3.9h2.4c-2.159.006-3.915-1.736-3.927-3.895z" fill="rgba(50,91,175,0.15)"/><path d="M17.313 22H6.688C4.1 21.997 2.003 19.901 2 17.313V6.688C2.003 4.1 4.1 2.003 6.688 2h10.625c2.588.003 4.684 2.1 4.687 4.688v10.625c-.003 2.587-2.1 4.684-4.687 4.687zM6.688 3.562a3.13 3.13 0 0 0-3.126 3.126v10.625a3.13 3.13 0 0 0 3.125 3.125h10.626a3.13 3.13 0 0 0 3.125-3.125V6.688a3.13 3.13 0 0 0-3.125-3.125zm3.554 2.383a.78.78 0 0 0-.781-.781H6.18a.78.78 0 1 0 0 1.563h3.281a.78.78 0 0 0 .781-.782zm7.148 9.1a.78.78 0 0 0-.781-.781h-6.523a.78.78 0 0 0-.676 1.172.78.78 0 0 0 .676.39h6.523a.78.78 0 0 0 .782-.779zm1.055 3.047a.78.78 0 0 0-.781-.781h-1.719a.78.78 0 0 0-.676 1.172.78.78 0 0 0 .676.39h1.719a.78.78 0 0 0 .781-.779z" fill="#325baf"/><path d="M17.802 12.796h-5.537c-.281 0-.54-.15-.68-.393s-.14-.542 0-.786.4-.393.68-.393h5.537c.281 0 .54.15.68.393s.14.542 0 .786-.4.393-.68.393zm-1.964-3.809c0-.434-.351-.785-.785-.785H7.709c-.434 0-.785.352-.785.786s.352.785.785.785h7.344c.209 0 .409-.083.556-.23s.23-.348.23-.557z" fill="#23cefd"/></svg>