<svg xmlns="http://www.w3.org/2000/svg" width="24" height="24" xmlns:v="https://vecta.io/nano"><path d="M0 0h24v24H0z" fill="rgba(255,255,255,0)"/><path d="M12 23.999A12 12 0 0 1 3.515 3.515c4.69-4.664 12.27-4.654 16.947.024s4.687 12.258.023 16.947A11.92 11.92 0 0 1 12 23.999zM10.453 9.745v8.837a1.16 1.16 0 0 0 1.161 1.161h.775a1.16 1.16 0 0 0 1.161-1.161V9.745l3.5 3.652a1.16 1.16 0 0 0 1.659.021l.527-.533a1.16 1.16 0 0 0 .342-.827 1.14 1.14 0 0 0-.342-.812l-6.413-6.422a1.16 1.16 0 0 0-1.64 0l-6.426 6.422c-.22.218-.343.515-.342.824a1.14 1.14 0 0 0 .342.815l.527.533c.219.217.515.339.823.339a1.15 1.15 0 0 0 .842-.36l3.5-3.65z" fill="currentColor"/></svg>