<svg xmlns="http://www.w3.org/2000/svg" width="16.001" height="16" xmlns:v="https://vecta.io/nano"><path d="M15.848 1.984A1.68 1.68 0 0 0 15.71.291a1.68 1.68 0 0 0-1.689-.137c-.742.25-1.415.671-1.964 1.23l-1.827 1.83-7.592-1.816c-.122-.038-.255-.003-.342.091L.834 2.951c-.081.08-.119.195-.1.308s.091.217.194.274l5.8 3.185-2.96 2.958-2.215-.6c-.029-.01-.06-.014-.091-.012-.098-.004-.193.032-.263.1L.1 10.269a.39.39 0 0 0-.1.285.34.34 0 0 0 .148.263l2.877 2.158 2.158 2.877a.41.41 0 0 0 .274.149h.023c.098.004.193-.032.263-.1l1.1-1.1c.095-.091.13-.228.091-.354l-.605-2.215 2.954-2.956 3.185 5.8c.044.098.134.167.24.183a.25.25 0 0 0 .08.011c.076.003.152-.021.212-.068l1.462-1.1c.121-.084.176-.235.137-.377l-1.822-7.941 1.838-1.838c.559-.548.982-1.22 1.233-1.962z" fill="#00d6b5"/></svg>