<svg xmlns="http://www.w3.org/2000/svg" width="32" height="32" xmlns:v="https://vecta.io/nano"><defs><clipPath id="A"><path transform="translate(-209 321)" d="M0 0h25v8H0z" fill="#fff"/></clipPath><path id="B" d="M22.532 21.196l-1.601-1.601 1.81-.363-.419-2.081-3.197.639-1.853-1.853 2.164-2.164 2.758.919.672-2.015-1.75-.585 1.414-1.414-1.503-1.503-1.414 1.414-.584-1.749-2.015.672.919 2.758-2.164 2.164-1.853-1.853.639-3.197-2.081-.419-.363 1.81-1.601-1.601-1.503 1.503 1.602 1.602-1.812.363.416 2.084 3.2-.641 1.852 1.852-1.852 1.852-3.2-.639-.418 2.082 1.809.361-1.6 1.6 1.504 1.504 1.601-1.601.363 1.812 2.085-.416-.641-3.203 1.851-1.851 1.852 1.852-.641 3.2 2.084.416.363-1.812 1.602 1.602z"/></defs><circle cx="16" cy="16" r="16" fill="#325baf"/><use href="#B" fill="#9ac0fa"/><g clip-path="url(#A)" transform="translate(213 -305)"><path d="M-190.468 326.196l-1.601-1.601 1.81-.363-.419-2.081-3.197.639-1.853-1.853 2.164-2.164 2.758.919.672-2.015-1.75-.585 1.414-1.414-1.503-1.503-1.414 1.414-.584-1.749-2.015.672.919 2.758-2.164 2.164-1.853-1.853.639-3.197-2.081-.419-.363 1.81-1.601-1.601-1.503 1.503 1.602 1.602-1.812.363.416 2.084 3.2-.641 1.852 1.852-1.852 1.852-3.2-.639-.418 2.082 1.809.361-1.6 1.6 1.504 1.504 1.601-1.601.363 1.812 2.085-.416-.641-3.203 1.851-1.851 1.852 1.852-.641 3.2 2.084.416.363-1.812 1.602 1.602z" fill="#f1f3f4"/></g></svg>