<svg xmlns="http://www.w3.org/2000/svg" width="32" height="32" xmlns:v="https://vecta.io/nano"><g fill="#fff" stroke="#eee"><circle cx="16" cy="16" r="16" stroke="none"/><circle cx="16" cy="16" r="15.5" fill="none"/></g><g fill-rule="evenodd"><path d="M22.241 16.109a8.1 8.1 0 0 0-.106-1.311h-6.01v2.487h3.443a3 3 0 0 1-1.274 1.964v1.616h2.053a6.35 6.35 0 0 0 1.894-4.756z" fill="#4285f4"/><path d="M16.125 22.428c1.556.042 3.068-.517 4.222-1.562l-2.053-1.616a3.78 3.78 0 0 1-2.168.619 3.82 3.82 0 0 1-3.576-2.666h-2.116v1.67c1.066 2.171 3.272 3.549 5.691 3.555z" fill="#34a853"/><path d="M12.549 17.204c-.266-.805-.266-1.673 0-2.478v-1.661h-2.115a6.49 6.49 0 0 0 0 5.8z" fill="#fbbc04"/><path d="M16.125 12.059a3.4 3.4 0 0 1 2.443.97l1.826-1.85a6.1 6.1 0 0 0-4.269-1.678c-2.42.009-4.626 1.391-5.691 3.564l2.115 1.67c.491-1.569 1.932-2.648 3.576-2.676z" fill="#ea4335"/></g></svg>