<svg xmlns="http://www.w3.org/2000/svg" width="16" height="13.954" fill="#f25195" xmlns:v="https://vecta.io/nano"><path d="M14.421 3.321v5.271a2.99 2.99 0 0 0 0-5.271zM5.04 8.947v-5.98H1.73A1.73 1.73 0 0 0 0 4.697v2.52a1.73 1.73 0 0 0 1.73 1.73zm0 0"/><path d="M12.312 0a1.53 1.53 0 0 0-.626.142L5.929 2.721a.49.49 0 0 1 .009.093v6.272a.49.49 0 0 1-.009.093l5.756 2.579a1.53 1.53 0 0 0 .626.142h0c.332.005.65-.135.87-.385.215-.259.327-.588.316-.924V1.309A1.2 1.2 0 0 0 12.312 0zM1.73 9.855c-.244 0-.486-.034-.721-.1l.517 2.585c.207.926 1.019 1.592 1.968 1.614a1.73 1.73 0 0 0 1.73-1.73V9.868l-.018-.008zm0 0"/></svg>