<svg xmlns="http://www.w3.org/2000/svg" width="24.042" height="24.042" xmlns:v="https://vecta.io/nano"><path d="M18.783 17.28l-1.601-1.601 1.81-.363-.419-2.081-3.197.639-1.853-1.853 2.164-2.164 2.758.919.672-2.015-1.75-.585 1.414-1.414-1.503-1.503-1.414 1.414-.584-1.749-2.015.672.919 2.758-2.164 2.164-1.853-1.853.639-3.197-2.081-.419-.363 1.81-1.601-1.601L5.26 6.761l1.602 1.602-1.812.363.416 2.084 3.2-.641 1.852 1.852-1.852 1.852-3.2-.639-.418 2.082 1.809.361-1.6 1.6 1.504 1.504 1.601-1.601.363 1.812 2.085-.416-.641-3.203 1.851-1.851 1.852 1.852-.641 3.2 2.084.416.363-1.812 1.602 1.602z" fill="#9ac0fa"/></svg>