<svg xmlns="http://www.w3.org/2000/svg" width="24" height="18.075" fill="#01d167" xmlns:v="https://vecta.io/nano"><path d="M23.5 8H.5c-.135-.008-.266.043-.362.138A.47.47 0 0 0 0 8.5v7.053c-.009.668.251 1.311.721 1.785a2.48 2.48 0 0 0 1.779.734h19c.668.004 1.309-.261 1.779-.734s.73-1.117.721-1.785V8.5c.008-.135-.043-.266-.138-.362A.47.47 0 0 0 23.5 8zm-20 4.03h4c.278 0 .504.226.504.504s-.226.504-.504.504h-4c-.278 0-.504-.226-.504-.504s.226-.504.504-.504zm7 3.023h-7c-.278 0-.504-.226-.504-.504s.226-.504.504-.504h7c.278 0 .504.226.504.504s-.226.504-.504.504zm8.5 0a1.68 1.68 0 0 1-1-.3 1.68 1.68 0 0 1-1 .3c-1.113 0-2.015-.902-2.015-2.015s.902-2.015 2.015-2.015a1.68 1.68 0 0 1 1 .3 1.68 1.68 0 0 1 1-.3c1.113 0 2.015.902 2.015 2.015s-.902 2.015-2.015 2.015zM21.5 0h-19C1.1 0 0 1.378 0 3.132v1.253c0 .376.2.626.5.626h23c.3 0 .5-.251.5-.626V3.132C24 1.378 22.9 0 21.5 0z"/></svg>