<svg xmlns="http://www.w3.org/2000/svg" width="24" height="24.25" xmlns:v="https://vecta.io/nano"><path d="M0 .125h24v24H0z" fill="rgba(255,255,255,0)"/><path d="M12 .125a11.84 11.84 0 0 0-11.669 12 11.84 11.84 0 0 0 11.667 12 11.33 11.33 0 0 0 6.651-2.2c.5-.473.811-.529.811-1.041l.007-.1c.004-.285-.105-.56-.304-.765s-.471-.321-.756-.325c-.292 0-.57.125-.764.343a9.32 9.32 0 0 1-5.633 1.9c-5.356-.075-9.637-4.477-9.563-9.833-.094-3.478 1.708-6.734 4.705-8.501s6.718-1.767 9.716 0 4.8 5.022 4.705 8.501a10.01 10.01 0 0 1-.921 4.19c-.189.384-.353.78-.49 1.185l-.007.1a1.08 1.08 0 0 0 1.063 1.092c.469-.007.876-.324 1-.776h0a12.19 12.19 0 0 0 1.448-5.77A11.84 11.84 0 0 0 12 .125zm-6.516 10.7c.014.254.121.495.3.676s.421.288.676.3h0a.79.79 0 0 0 .108 0h10.8c.369 0 .71-.197.895-.517s.185-.714 0-1.034-.526-.517-.895-.517l-8.437.012 1.222-1.234A1 1 0 0 0 8.74 7.099l-2.956 2.983a.99.99 0 0 0-.289.632h-.007c-.003.037-.003.073 0 .11zm8.247 6.891a1 1 0 0 0 1.416 0l2.958-2.978a1 1 0 0 0 .289-.629h.007v-.108h0a1.04 1.04 0 0 0-.3-.673 1.05 1.05 0 0 0-.676-.3h0a.79.79 0 0 0-.108 0h-10.8a1.03 1.03 0 1 0 0 2.062l8.439-.012-1.222 1.237c-.187.185-.293.437-.293.7s.104.515.29.701z" fill="currentColor" stroke="#0c365a" stroke-linejoin="round" stroke-width=".25"/></svg>