<svg xmlns="http://www.w3.org/2000/svg" width="24" height="24" xmlns:v="https://vecta.io/nano"><path d="M0 0h24v24H0z" fill="rgba(255,255,255,0)"/><g fill="#325baf"><path d="M8.53 18.347H6.693c-.864 0-1.564-.7-1.564-1.564s.7-1.564 1.564-1.564H9.04c-.761.001-1.411.549-1.54 1.299s.3 1.484 1.016 1.74q.007.041.015.082zM7.502 9.039c-.083.162-.239.275-.419.304s-.363-.029-.493-.156L5.453 8.059a1.1 1.1 0 0 1 0-1.561L6.59 5.37c.141-.138.343-.194.534-.148s.346.187.41.374h.527V4.017a1.24 1.24 0 0 0-2.107-.875L3.486 5.588a2.39 2.39 0 0 0 0 3.388l2.469 2.441a1.24 1.24 0 0 0 2.107-.875V9.039z" opacity=".15"/><path d="M17.205 22a2.01 2.01 0 0 1-2-2.015v-1.659a.78.78 0 0 1 1.172-.676.78.78 0 0 1 .39.676v1.659a.43.43 0 0 0 .269.416.41.41 0 0 0 .465-.1l2.465-2.443a1.6 1.6 0 0 0 0-2.274l-2.467-2.44a.41.41 0 0 0-.465-.1.43.43 0 0 0-.269.416v1.74a.78.78 0 0 1-.781.781H6.689a.78.78 0 1 0 0 1.562h1.25a.78.78 0 1 1 0 1.562h-1.25c-.849.018-1.641-.425-2.07-1.158s-.43-1.64 0-2.372 1.221-1.175 2.07-1.158h8.515v-.956a2 2 0 0 1 1.231-1.858 1.96 1.96 0 0 1 2.166.429l2.465 2.443c.599.594.935 1.403.935 2.247s-.337 1.652-.935 2.247l-2.467 2.445a1.97 1.97 0 0 1-1.394.586zm-9.61-9.614a1.98 1.98 0 0 0 1.241-1.854v-.878h8.476c1.275-.026 2.296-1.068 2.296-2.343s-1.02-2.317-2.296-2.344H8.836v-.956a1.98 1.98 0 0 0-1.241-1.854 2.01 2.01 0 0 0-2.2.425l-2.46 2.443C2.336 5.619 2 6.428 2 7.272s.337 1.652.935 2.247L5.4 11.961a2 2 0 0 0 1.413.582 2.03 2.03 0 0 0 .782-.157zM6.989 3.6c.17.065.281.23.279.412v1.736a.78.78 0 0 0 .781.781h9.257a.78.78 0 1 1 0 1.562H8.054a.78.78 0 0 0-.781.781v1.66c-.003.181-.114.344-.282.413s-.361.032-.491-.094L4.035 8.408a1.6 1.6 0 0 1 0-2.274L6.5 3.691c.08-.083.19-.131.305-.131a.5.5 0 0 1 .184.04zm-3.5 1.98h0z"/></g><path d="M13.012 19.103H10.9a.78.78 0 1 1 0-1.564h2.112a.78.78 0 1 1 0 1.564z" fill="#23cefd"/></svg>