<svg xmlns="http://www.w3.org/2000/svg" width="20.537" height="20.537" fill="#01d167" xmlns:v="https://vecta.io/nano"><path d="M10.269 16.688a10.04 10.04 0 0 1-5.756-1.8c-1.65-1.144-2.923-2.752-3.657-4.621 1.52-3.87 5.254-6.415 9.412-6.415s7.892 2.545 9.412 6.415a10.14 10.14 0 0 1-3.656 4.619 10.04 10.04 0 0 1-5.755 1.802zm0-10.7a4.28 4.28 0 0 0-3.023 7.304 4.28 4.28 0 0 0 7.302-3.028c-.006-2.36-1.919-4.271-4.279-4.273z" stroke="rgba(0,0,0,0)" stroke-miterlimit="10"/><path d="M10.268 7.701a2.57 2.57 0 0 0-2.567 2.567 2.57 2.57 0 0 0 2.567 2.567 2.57 2.57 0 0 0 2.567-2.567c.001-.681-.269-1.334-.751-1.816s-1.135-.752-1.816-.751z"/></svg>