<svg xmlns="http://www.w3.org/2000/svg" width="32" height="32" xmlns:v="https://vecta.io/nano"><circle cx="16" cy="16" r="16" fill="#325baf"/><g stroke-width=".6"><path d="M19.518 21.187a6.28 6.28 0 0 1-3.619 1.139h-.029c-.089 0-.179 0-.269-.006-.324-.014-.597.238-.611.562s.238.597.562.611l.317.007h.029c1.535.003 3.034-.468 4.291-1.35.258-.188.318-.548.136-.81s-.541-.33-.807-.153zm-8.295-.9c-.221-.237-.593-.251-.83-.03s-.251.593-.03.83l.414.415a.59.59 0 0 0 .831-.031.59.59 0 0 0-.031-.831l-.354-.35zm-1.288-2.1c-.113-.304-.451-.458-.755-.345s-.458.451-.345.755l.226.542c.136.294.485.421.779.285s.421-.485.284-.779l-.189-.452zm3.735 3.745l-.457-.191c-.292-.126-.631.004-.765.293s-.013.631.272.772l.542.226c.3.099.625-.057.734-.353s-.034-.626-.326-.747z" fill="#f1f3f4" stroke="#f1f3f4"/><path d="M23.501 15.928v.029a7.4 7.4 0 0 1-1.178 3.984.59.59 0 0 1-.809.177.58.58 0 0 1-.178-.8c1.244-1.933 1.329-4.392.221-6.406s-3.229-3.26-5.527-3.247a6.37 6.37 0 0 0-5.411 3.027h1.339c.214-.009.415.1.525.284s.11.413 0 .597-.311.293-.525.284h0-1.714a1.72 1.72 0 0 1-1.229-.5 1.74 1.74 0 0 1-.514-1.257v-1.678c0-.324.262-.586.586-.586s.586.262.586.586V12c1.217-1.926 3.244-3.196 5.508-3.452s4.523.53 6.139 2.137c1.395 1.388 2.18 3.275 2.181 5.243z" fill="#9ac0fa" stroke="#9ac0fa"/></g></svg>