<svg xmlns="http://www.w3.org/2000/svg" width="32" height="32" xmlns:v="https://vecta.io/nano"><circle cx="16" cy="16" r="16" fill="#325baf"/><path d="M12.173 12.349a.22.22 0 0 0-.054-.159l-1.737-1.977a.22.22 0 0 0-.31-.02 9.04 9.04 0 0 0-1.97 2.46.22.22 0 0 0 .087.3l2.309 1.262a.22.22 0 0 0 .3-.087c.335-.614.775-1.164 1.3-1.626a.22.22 0 0 0 .075-.153zm.753-.72a.22.22 0 0 0 .3.091 5.91 5.91 0 0 1 1.979-.637.22.22 0 0 0 .188-.247l-.354-2.608a.22.22 0 0 0-.247-.188c-1.049.143-2.065.47-3 .967a.22.22 0 0 0-.091.3zm-2.803 3.495l-2.54-.689a.22.22 0 0 0-.269.154A9.06 9.06 0 0 0 7 16.96l.01.422a.22.22 0 0 0 .219.209h.01l2.629-.121a.22.22 0 0 0 .209-.229l-.007-.28a6.01 6.01 0 0 1 .208-1.567.22.22 0 0 0-.155-.27zm9.784-6.273a8.97 8.97 0 0 0-3.039-.85.22.22 0 0 0-.239.2l-.254 2.619a.22.22 0 0 0 .2.239 5.91 5.91 0 0 1 2 .56.22.22 0 0 0 .293-.1l1.143-2.371a.22.22 0 0 0-.104-.297zm3.843 3.668a.22.22 0 0 0-.024-.166 9.04 9.04 0 0 0-2.062-2.382.22.22 0 0 0-.308.032l-1.661 2.042a.22.22 0 0 0 .032.309 5.98 5.98 0 0 1 1.364 1.576.22.22 0 0 0 .3.076l2.259-1.35a.22.22 0 0 0 .1-.137zm.838 1.738a.22.22 0 0 0-.275-.144l-2.511.787a.22.22 0 0 0-.144.275 5.97 5.97 0 0 1 .272 1.786l-.007.28a.22.22 0 0 0 .209.229l2.629.121h.01a.22.22 0 0 0 .219-.209l.01-.422a9.01 9.01 0 0 0-.412-2.703z" fill="#9ac0fa" stroke="#325baf" stroke-linejoin="round" stroke-width=".25"/><path d="M17.079 18.784l-.111-.02-3.143-2.688c-.077-.065-.188-.071-.271-.016s-.121.16-.09.256l1.28 3.925c-.019.068-.035.137-.048.207a2.06 2.06 0 0 0 1.668 2.384 2.06 2.06 0 0 0 2.384-1.668 2.06 2.06 0 0 0-1.668-2.384z" fill="#f1f3f4"/></svg>