<svg xmlns="http://www.w3.org/2000/svg" width="20.023" height="24" fill="#fff" xmlns:v="https://vecta.io/nano"><path d="M9.86 11.547a5.6 5.6 0 0 0 4.091-1.691 5.58 5.58 0 0 0 1.692-4.083 5.58 5.58 0 0 0-1.7-4.082c-2.261-2.255-5.92-2.255-8.181 0a5.58 5.58 0 0 0-1.7 4.082 5.58 5.58 0 0 0 1.7 4.082c1.075 1.103 2.558 1.715 4.098 1.692zm10.115 6.915a14.29 14.29 0 0 0-.194-1.515 11.92 11.92 0 0 0-.373-1.523c-.159-.494-.37-.97-.627-1.42a5.36 5.36 0 0 0-.945-1.23 4.17 4.17 0 0 0-1.358-.852 4.7 4.7 0 0 0-1.733-.313 1.76 1.76 0 0 0-.94.4l-.979.63a5.61 5.61 0 0 1-1.266.557 4.92 4.92 0 0 1-3.1 0 5.6 5.6 0 0 1-1.265-.557l-.98-.631a1.76 1.76 0 0 0-.939-.4 4.69 4.69 0 0 0-1.733.314c-.504.193-.965.483-1.358.852a5.36 5.36 0 0 0-.945 1.23 7.53 7.53 0 0 0-.627 1.42 11.95 11.95 0 0 0-.373 1.523c-.092.501-.157 1.007-.194 1.515l-.048 1.416a3.98 3.98 0 0 0 1.186 3.014c.83.758 1.927 1.157 3.05 1.111H15.79c1.123.046 2.22-.353 3.05-1.111a3.98 3.98 0 0 0 1.184-3.012l-.049-1.418zm0 0"/></svg>