<svg xmlns="http://www.w3.org/2000/svg" width="10" height="7.862" fill="#fff" xmlns:v="https://vecta.io/nano"><path d="M0 3.239v3.039a1.48 1.48 0 0 0 1.349 1.584h7.3A1.48 1.48 0 0 0 10 6.277V3.238c.01-.141-.094-.264-.235-.276H.235c-.141.012-.246.136-.235.277zm2.5 1.929h-.629a.49.49 0 0 1-.412-.482.49.49 0 0 1 .412-.482H2.5a.49.49 0 0 1 .412.482.49.49 0 0 1-.412.482zM10 1.684v-.1A1.48 1.48 0 0 0 8.651 0h-7.3A1.48 1.48 0 0 0 0 1.584v.1c-.01.141.094.264.235.276h9.53c.141-.012.245-.135.235-.276z"/></svg>